<svg width="20" height="24" viewBox="0 0 20 24" fill="none" xmlns="http://www.w3.org/2000/svg">
<path d="M1 7.6C1 4.4892 1 2.9327 1.9669 1.9669C2.9327 1 4.4892 1 7.6 1H12C15.1108 1 16.6673 1 17.6331 1.9669C18.6 2.9327 18.6 4.4892 18.6 7.6V16.4C18.6 19.5108 18.6 21.0673 17.6331 22.0331C16.6673 23 15.1108 23 12 23H7.6C4.4892 23 2.9327 23 1.9669 22.0331C1 21.0673 1 19.5108 1 16.4V7.6Z" stroke="#B6B8B8" stroke-width="1.5"/>
<path opacity="0.5" d="M18.4878 16.4004H5.2878C4.2648 16.4004 3.7533 16.4004 3.3331 16.5126C2.77354 16.6626 2.26334 16.9573 1.8538 17.3671C1.44425 17.7768 1.14978 18.2872 1 18.8468" stroke="#B6B8B8" stroke-width="1.5"/>
<path opacity="0.5" d="M5.40039 6.5H14.2004M5.40039 10.35H10.9004" stroke="#B6B8B8" stroke-width="1.5" stroke-linecap="round"/>
</svg>
