<svg width="32" height="32" viewBox="0 0 32 32" fill="none" xmlns="http://www.w3.org/2000/svg">
<path d="M16.12 28.3333C19.12 25.9 23.6934 23.5933 23.6934 13.76V7.62664C21.0267 7.62664 18.7 6.37331 16.0934 5.30664C13.6334 6.32664 11.02 7.63997 8.19336 7.61331V13.7933C8.30003 23.1666 12.6667 26 16.12 28.3333Z" stroke="#1A7A6C" stroke-linecap="round" stroke-linejoin="round"/>
<path d="M22.2003 21.8267C24.7736 23.8267 26.1536 26.1267 27.5336 28.3067C25.1194 27.1752 22.962 25.5622 21.1936 23.5667M9.70698 21.6067C7.08031 23.8734 5.22031 26.0067 4.32031 28.1601C6.56031 26.8267 8.54698 25.7334 10.607 23.2734M4.48698 3.88672L8.22031 7.61339M9.76031 5.11339L7.58031 6.97339L5.72031 9.15339M27.447 3.89339L23.7203 7.62672M26.2203 9.16672L24.3603 6.98672L22.1803 5.12005M16.1203 9.52005C14.6168 10.0522 13.0683 10.4471 11.4936 10.7001C11.1803 16.2134 13.1403 20.0334 16.1203 22.9601C19.1536 20.0001 20.5003 16.0001 20.4536 10.9134C18.9557 10.6356 17.4994 10.1673 16.1203 9.52005Z" stroke="#1A7A6C" stroke-linecap="round" stroke-linejoin="round"/>
</svg>
