<svg width="20" height="25" viewBox="0 0 20 25" fill="none" xmlns="http://www.w3.org/2000/svg">
<path d="M3.42378 17.5C3.24223 17.5 3.06812 17.5658 2.93975 17.6831C2.81138 17.8003 2.73926 17.9592 2.73926 18.125C2.73926 18.2908 2.81138 18.4497 2.93975 18.5669C3.06812 18.6842 3.24223 18.75 3.42378 18.75H15.7452C15.9268 18.75 16.1009 18.6842 16.2292 18.5669C16.3576 18.4497 16.4297 18.2908 16.4297 18.125C16.4297 17.9592 16.3576 17.8003 16.2292 17.6831C16.1009 17.5658 15.9268 17.5 15.7452 17.5H3.42378ZM2.73926 20.625C2.73926 20.4592 2.81138 20.3003 2.93975 20.1831C3.06812 20.0658 3.24223 20 3.42378 20H11.6381C11.8196 20 11.9937 20.0658 12.1221 20.1831C12.2505 20.3003 12.3226 20.4592 12.3226 20.625C12.3226 20.7908 12.2505 20.9497 12.1221 21.0669C11.9937 21.1842 11.8196 21.25 11.6381 21.25H3.42378C3.24223 21.25 3.06812 21.1842 2.93975 21.0669C2.81138 20.9497 2.73926 20.7908 2.73926 20.625Z" fill="#B6B8B8"/>
<path fill-rule="evenodd" clip-rule="evenodd" d="M7.47827 7.2595C7.42628 7.14563 7.33854 7.04836 7.2261 6.97993C7.11367 6.91151 6.98157 6.875 6.84645 6.875C6.71133 6.875 6.57924 6.91151 6.46681 6.97993C6.35437 7.04836 6.26663 7.14563 6.21464 7.2595L3.65315 12.872C3.64906 12.8807 3.64518 12.8894 3.64151 12.8982L2.79202 14.7595C2.72212 14.9125 2.72166 15.0846 2.79072 15.2379C2.85979 15.3912 2.99272 15.5132 3.16029 15.577C3.32786 15.6408 3.51633 15.6412 3.68424 15.5782C3.85216 15.5151 3.98575 15.3937 4.05565 15.2407L4.73607 13.7501H8.95684L9.63726 15.2407C9.70715 15.3937 9.84075 15.5151 10.0087 15.5782C10.1766 15.6412 10.365 15.6408 10.5326 15.577C10.7002 15.5132 10.8331 15.3912 10.9022 15.2379C10.9713 15.0846 10.9708 14.9125 10.9009 14.7595L10.0514 12.8982C10.0477 12.8894 10.0438 12.8807 10.0398 12.872L7.47827 7.2595ZM6.84645 9.12513L8.38663 12.5001H5.30628L6.84645 9.12513Z" fill="#B6B8B8"/>
<path d="M13.6902 10.625C13.8718 10.625 14.0459 10.6908 14.1743 10.8081C14.3026 10.9253 14.3748 11.0842 14.3748 11.25V12.5H15.7438C15.9254 12.5 16.0995 12.5658 16.2278 12.6831C16.3562 12.8003 16.4283 12.9592 16.4283 13.125C16.4283 13.2908 16.3562 13.4497 16.2278 13.5669C16.0995 13.6842 15.9254 13.75 15.7438 13.75H14.3748V15C14.3748 15.1658 14.3026 15.3247 14.1743 15.4419C14.0459 15.5592 13.8718 15.625 13.6902 15.625C13.5087 15.625 13.3346 15.5592 13.2062 15.4419C13.0778 15.3247 13.0057 15.1658 13.0057 15V13.75H11.6367C11.4551 13.75 11.281 13.6842 11.1526 13.5669C11.0243 13.4497 10.9521 13.2908 10.9521 13.125C10.9521 12.9592 11.0243 12.8003 11.1526 12.6831C11.281 12.5658 11.4551 12.5 11.6367 12.5H13.0057V11.25C13.0057 11.0842 13.0778 10.9253 13.2062 10.8081C13.3346 10.6908 13.5087 10.625 13.6902 10.625Z" fill="#B6B8B8"/>
<path fill-rule="evenodd" clip-rule="evenodd" d="M19.1667 6.875L12.3214 0H2.7381C2.01191 0 1.31546 0.263392 0.801969 0.732233C0.288477 1.20107 0 1.83696 0 2.5V22.5C0 23.163 0.288477 23.7989 0.801969 24.2678C1.31546 24.7366 2.01191 25 2.7381 25H16.4286C17.1548 25 17.8512 24.7366 18.3647 24.2678C18.8782 23.7989 19.1667 23.163 19.1667 22.5V6.875ZM11.6369 6.875C11.6369 7.04076 11.709 7.19973 11.8374 7.31694C11.9658 7.43415 12.1399 7.5 12.3214 7.5H17.7976V22.5C17.7976 22.8315 17.6534 23.1495 17.3966 23.3839C17.1399 23.6183 16.7917 23.75 16.4286 23.75H2.7381C2.375 23.75 2.02678 23.6183 1.77003 23.3839C1.51329 23.1495 1.36905 22.8315 1.36905 22.5V2.5C1.36905 2.16848 1.51329 1.85054 1.77003 1.61612C2.02678 1.3817 2.375 1.25 2.7381 1.25H11.6369V6.875ZM16.6942 6.25L13.006 2.54562V6.25H16.6942Z" fill="#B6B8B8"/>
</svg>
