<svg width="27" height="27" viewBox="0 0 27 27" fill="none" xmlns="http://www.w3.org/2000/svg">
<path d="M1.47266 13.7463C1.47266 10.9931 1.47266 9.61702 2.09813 8.47674C2.72119 7.33525 3.86268 6.62799 6.14445 5.21105L8.55011 3.71834C10.9618 2.22082 12.1682 1.47266 13.501 1.47266C14.8337 1.47266 16.0389 2.22082 18.4518 3.71834L20.8575 5.21105C23.1392 6.62799 24.2807 7.33525 24.905 8.47674C25.5293 9.61702 25.5293 10.9931 25.5293 13.7451V15.5758C25.5293 20.2669 25.5293 22.6136 24.1195 24.0714C22.711 25.5293 20.4425 25.5293 15.9066 25.5293H11.0953C6.55943 25.5293 4.29089 25.5293 2.88237 24.0714C1.47266 22.6136 1.47266 20.2681 1.47266 15.5758V13.7463Z" stroke="white" stroke-width="2.5"/>
<path d="M13.502 17.1084V20.7169" stroke="white" stroke-width="2.5" stroke-linecap="round"/>
</svg>
