<svg width="27" height="27" viewBox="0 0 27 27" fill="none" xmlns="http://www.w3.org/2000/svg">
<path d="M17.6667 26H9.33333M17.6667 26V14.3327C17.6667 14.1117 17.5789 13.8997 17.4226 13.7434C17.2663 13.5871 17.0543 13.4993 16.8333 13.4993H10.1667C9.94565 13.4993 9.73369 13.5871 9.57741 13.7434C9.42113 13.8997 9.33333 14.1117 9.33333 14.3327V26M17.6667 26H25.1667C25.3877 26 25.5996 25.9122 25.7559 25.7559C25.9122 25.5996 26 25.3876 26 25.1666V21.972C26 21.751 25.9122 21.539 25.7559 21.3827C25.5996 21.2264 25.3877 21.1386 25.1667 21.1386H18.5C18.279 21.1386 18.067 21.2264 17.9107 21.3827C17.7545 21.539 17.6667 21.751 17.6667 21.972V26ZM9.33333 26V19.1941C9.33333 18.9731 9.24554 18.7611 9.08926 18.6048C8.93298 18.4485 8.72101 18.3607 8.5 18.3607H1.83333C1.61232 18.3607 1.40036 18.4485 1.24408 18.6048C1.0878 18.7611 1 18.9731 1 19.1941V25.1666C1 25.3876 1.0878 25.5996 1.24408 25.7559C1.40036 25.9122 1.61232 26 1.83333 26H9.33333ZM11.8417 3.93354L13.1042 1.25701C13.1382 1.1805 13.1938 1.1155 13.264 1.06989C13.3343 1.02428 13.4162 1 13.5 1C13.5838 1 13.6657 1.02428 13.736 1.06989C13.8062 1.1155 13.8617 1.1805 13.8958 1.25701L15.1597 3.93354L17.9819 4.36551C18.3444 4.42107 18.4889 4.88776 18.2264 5.15444L16.1847 7.23789L16.6667 10.1797C16.7278 10.5575 16.35 10.8464 16.025 10.6672L13.5 9.27828L10.975 10.6672C10.6514 10.845 10.2722 10.5575 10.3333 10.1797L10.8153 7.23789L8.77361 5.15444C8.50972 4.88776 8.65556 4.42107 9.01667 4.36551L11.8417 3.93354Z" stroke="black" stroke-width="1.5" stroke-linecap="round" stroke-linejoin="round"/>
</svg>
